<svg width="14" height="15" viewBox="0 0 14 15" fill="none" xmlns="http://www.w3.org/2000/svg">
<mask id="path-1-inside-1_815_3864" fill="white">
<path d="M7.875 6.47995V0H6.125V6.47995H0V8.33136H6.125V14.8113H7.875V8.33136H14V6.47995H7.875Z"/>
</mask>
<path d="M7.875 6.47995V0H6.125V6.47995H0V8.33136H6.125V14.8113H7.875V8.33136H14V6.47995H7.875Z" fill="#211A1D"/>
<path d="M7.875 6.47995H-2.125V16.4799H7.875V6.47995ZM7.875 0H17.875V-10H7.875V0ZM6.125 0V-10H-3.875V0H6.125ZM6.125 6.47995V16.4799H16.125V6.47995H6.125ZM0 6.47995V-3.52005H-10V6.47995H0ZM0 8.33136H-10V18.3314H0V8.33136ZM6.125 8.33136H16.125V-1.66864H6.125V8.33136ZM6.125 14.8113H-3.875V24.8113H6.125V14.8113ZM7.875 14.8113V24.8113H17.875V14.8113H7.875ZM7.875 8.33136V-1.66864H-2.125V8.33136H7.875ZM14 8.33136V18.3314H24V8.33136H14ZM14 6.47995H24V-3.52005H14V6.47995ZM7.875 6.47995H17.875V0H7.875H-2.125V6.47995H7.875ZM7.875 0V-10H6.125V0V10H7.875V0ZM6.125 0H-3.875V6.47995H6.125H16.125V0H6.125ZM6.125 6.47995V-3.52005H0V6.47995V16.4799H6.125V6.47995ZM0 6.47995H-10V8.33136H0H10V6.47995H0ZM0 8.33136V18.3314H6.125V8.33136V-1.66864H0V8.33136ZM6.125 8.33136H-3.875V14.8113H6.125H16.125V8.33136H6.125ZM6.125 14.8113V24.8113H7.875V14.8113V4.81131H6.125V14.8113ZM7.875 14.8113H17.875V8.33136H7.875H-2.125V14.8113H7.875ZM7.875 8.33136V18.3314H14V8.33136V-1.66864H7.875V8.33136ZM14 8.33136H24V6.47995H14H4V8.33136H14ZM14 6.47995V-3.52005H7.875V6.47995V16.4799H14V6.47995Z" fill="black" mask="url(#path-1-inside-1_815_3864)"/>
</svg>
