<svg width="21" height="18" viewBox="0 0 21 18" fill="none" xmlns="http://www.w3.org/2000/svg">
<mask id="path-1-inside-1_529_2404" fill="white">
<path d="M8.75 17.75L9.98375 16.5163L3.35125 9.875H21V8.125H3.35125L9.98375 1.48375L8.75 0.25L0 9L8.75 17.75Z"/>
</mask>
<path d="M8.75 17.75L5.21447 21.2855L8.75 24.8211L12.2855 21.2855L8.75 17.75ZM9.98375 16.5163L13.5193 20.0518L17.0525 16.5186L13.5216 12.983L9.98375 16.5163ZM3.35125 9.875V4.875H-8.70857L-0.186614 13.4082L3.35125 9.875ZM21 9.875V14.875H26V9.875H21ZM21 8.125H26V3.125H21V8.125ZM3.35125 8.125L-0.186614 4.5918L-8.70857 13.125H3.35125V8.125ZM9.98375 1.48375L13.5216 5.01695L17.0525 1.48142L13.5193 -2.05178L9.98375 1.48375ZM8.75 0.25L12.2855 -3.28553L8.75 -6.82107L5.21447 -3.28553L8.75 0.25ZM0 9L-3.53553 5.46447L-7.07107 9L-3.53553 12.5355L0 9ZM8.75 17.75L12.2855 21.2855L13.5193 20.0518L9.98375 16.5163L6.44822 12.9807L5.21447 14.2145L8.75 17.75ZM9.98375 16.5163L13.5216 12.983L6.88911 6.3418L3.35125 9.875L-0.186614 13.4082L6.44589 20.0495L9.98375 16.5163ZM3.35125 9.875V14.875H21V9.875V4.875H3.35125V9.875ZM21 9.875H26V8.125H21H16V9.875H21ZM21 8.125V3.125H3.35125V8.125V13.125H21V8.125ZM3.35125 8.125L6.88911 11.6582L13.5216 5.01695L9.98375 1.48375L6.44589 -2.04945L-0.186614 4.5918L3.35125 8.125ZM9.98375 1.48375L13.5193 -2.05178L12.2855 -3.28553L8.75 0.25L5.21447 3.78553L6.44822 5.01928L9.98375 1.48375ZM8.75 0.25L5.21447 -3.28553L-3.53553 5.46447L0 9L3.53553 12.5355L12.2855 3.78553L8.75 0.25ZM0 9L-3.53553 12.5355L5.21447 21.2855L8.75 17.75L12.2855 14.2145L3.53553 5.46447L0 9Z" fill="white" mask="url(#path-1-inside-1_529_2404)"/>
</svg>
