<svg width="17" height="18" viewBox="0 0 17 18" fill="none" xmlns="http://www.w3.org/2000/svg">
<path d="M15.5833 1.38462H12.75V0H11.3333V1.38462H5.66667V0H4.25V1.38462H1.41667C1.04112 1.38516 0.681108 1.53122 0.415553 1.79077C0.149998 2.05031 0.000562062 2.40218 0 2.76923V16.6154C0.000562062 16.9824 0.149998 17.3343 0.415553 17.5938C0.681108 17.8534 1.04112 17.9995 1.41667 18H15.5833C15.9589 17.9995 16.3189 17.8534 16.5844 17.5938C16.85 17.3343 16.9994 16.9824 17 16.6154V2.76923C16.9994 2.40218 16.85 2.05031 16.5844 1.79077C16.3189 1.53122 15.9589 1.38516 15.5833 1.38462ZM1.41667 2.76923H4.25V4.15385H5.66667V2.76923H11.3333V4.15385H12.75V2.76923H15.5833V5.53846H1.41667V2.76923ZM1.41667 6.92308H4.95833V11.0769H1.41667V6.92308ZM10.625 16.6154H6.375V12.4615H10.625V16.6154ZM10.625 11.0769H6.375V6.92308H10.625V11.0769ZM12.0417 16.6154V12.4615H15.5833L15.584 16.6154H12.0417Z" fill="white"/>
</svg>
