<svg width="25" height="25" viewBox="0 0 25 25" fill="none" xmlns="http://www.w3.org/2000/svg">
<path d="M23.25 7.23877V22.9888H7.5V7.23877H23.25ZM23.25 5.48877H7.5C7.03587 5.48877 6.59075 5.67314 6.26256 6.00133C5.93437 6.32952 5.75 6.77464 5.75 7.23877V22.9888C5.75 23.4529 5.93437 23.898 6.26256 24.2262C6.59075 24.5544 7.03587 24.7388 7.5 24.7388H23.25C23.7141 24.7388 24.1592 24.5544 24.4874 24.2262C24.8156 23.898 25 23.4529 25 22.9888V7.23877C25 6.77464 24.8156 6.32952 24.4874 6.00133C24.1592 5.67314 23.7141 5.48877 23.25 5.48877Z" fill="#8075FF"/>
<path d="M2.25 14.2388H0.5V1.98877C0.5 1.52464 0.684374 1.07952 1.01256 0.751333C1.34075 0.423144 1.78587 0.23877 2.25 0.23877H14.5V1.98877H2.25V14.2388Z" fill="#8075FF"/>
</svg>
