<svg width="21" height="26" viewBox="0 0 21 26" fill="none" xmlns="http://www.w3.org/2000/svg">
<path d="M7 9.25708H8.75V20.3656H7V9.25708ZM12.25 9.25708H14V20.3656H12.25V9.25708Z" fill="#ECEAFF"/>
<path d="M0 3.70283V5.55424H1.75V24.0684C1.75 24.5594 1.93437 25.0303 2.26256 25.3775C2.59075 25.7247 3.03587 25.9198 3.5 25.9198H17.5C17.9641 25.9198 18.4092 25.7247 18.7374 25.3775C19.0656 25.0303 19.25 24.5594 19.25 24.0684V5.55424H21V3.70283H0ZM3.5 24.0684V5.55424H17.5V24.0684H3.5ZM7 0H14V1.85141H7V0Z" fill="#ECEAFF"/>
</svg>
