<svg width="26" height="26" viewBox="0 0 26 26" fill="none" xmlns="http://www.w3.org/2000/svg">
<g clip-path="url(#clip0_795_46)">
<path d="M15.1785 0.0435085C15.0085 0.0949049 14.6646 0.438867 14.6369 0.593057C14.6211 0.656314 14.5973 0.711664 14.5776 0.711664C14.5578 0.711664 14.542 0.850039 14.542 1.01609C14.542 1.4075 14.629 1.59727 14.965 1.94123C15.4395 2.42752 15.7518 2.89404 15.8862 3.30522C15.9139 3.3922 15.9495 3.47522 15.9653 3.49894C16.0325 3.58592 16.0958 4.03663 16.0958 4.42804C16.0997 4.84712 16.0246 5.41643 15.9653 5.41643C15.9495 5.41643 15.9218 5.47574 15.9099 5.54295C15.8704 5.76039 15.5185 6.40087 15.3248 6.61832C15.2853 6.66181 15.2536 6.71321 15.2536 6.73693C15.2536 6.7567 15.226 6.80414 15.1943 6.83972C15.0481 6.99787 15.0204 7.70556 15.1508 7.83998C15.1746 7.8637 15.222 7.94673 15.2497 8.01789C15.2813 8.08906 15.3564 8.17604 15.4157 8.21162C15.479 8.25115 15.5304 8.29464 15.5304 8.31046C15.5304 8.36185 15.9376 8.46069 16.163 8.46069C16.4199 8.46069 16.7244 8.38162 16.8153 8.28674C16.8509 8.25511 16.9023 8.21162 16.93 8.1958C16.9695 8.16813 17.1118 7.98231 17.353 7.63044C17.5388 7.35764 17.9025 6.646 17.9025 6.55506C17.9025 6.51948 17.9184 6.4839 17.9421 6.47599C17.9618 6.46809 18.0093 6.33762 18.0488 6.18738C18.0884 6.03319 18.1318 5.90272 18.1477 5.89086C18.1595 5.879 18.203 5.67737 18.2386 5.4362C18.3453 4.74828 18.29 3.35661 18.1398 3.02451C18.12 2.98102 18.0844 2.86637 18.0567 2.76753C18.033 2.66869 17.9737 2.49869 17.9223 2.39194C17.8749 2.28124 17.8235 2.15472 17.8077 2.10333C17.7918 2.05588 17.7642 2.01635 17.7484 2.01635C17.7325 2.01635 17.697 1.95309 17.6693 1.87402C17.6139 1.71983 17.2067 1.09516 17.1474 1.07539C17.1276 1.06749 17.1118 1.03981 17.1118 1.01609C17.1118 0.988415 17.0683 0.925158 17.0169 0.869808C16.9655 0.814457 16.8114 0.65236 16.673 0.502124C16.5386 0.355842 16.4041 0.237234 16.3725 0.237234C16.3448 0.237234 16.3211 0.217465 16.3211 0.197698C16.3211 0.173976 16.246 0.118627 16.1551 0.0790901C15.9653 -0.00788879 15.4236 -0.0237026 15.1785 0.0435085Z" fill="#ECEAFF"/>
<path d="M23.4534 0.0751061C23.232 0.150224 23.1885 0.177899 22.9276 0.438836C22.6785 0.683958 22.6113 0.782798 22.5599 0.980477C22.5362 1.07141 22.5046 1.15839 22.4848 1.17025C22.4374 1.19792 22.4374 1.96492 22.4848 1.9926C22.5046 2.00446 22.5402 2.1033 22.5678 2.214C22.6034 2.36819 22.6627 2.45516 22.8604 2.6568C23.2202 3.01657 23.2439 3.03239 23.4495 3.08379C23.5523 3.11146 23.6472 3.14704 23.659 3.16681C23.6709 3.18658 23.8567 3.20239 24.0702 3.20239C24.2837 3.20239 24.4695 3.18658 24.4814 3.16681C24.4932 3.14704 24.5842 3.11146 24.679 3.08774C24.7739 3.06402 24.8767 3.02053 24.9083 2.99285C24.936 2.96518 25.0151 2.90983 25.0784 2.87029C25.1456 2.83076 25.2405 2.73982 25.2958 2.6647C25.3512 2.58959 25.4263 2.49075 25.4619 2.44726C25.7188 2.13492 25.7109 1.02001 25.45 0.691865C25.3788 0.600933 25.0507 0.272785 24.9597 0.201621C24.7107 -1.19209e-05 23.8725 -0.0672228 23.4534 0.0751061Z" fill="#ECEAFF"/>
<path d="M9.93636 1.05544C9.79798 1.08311 9.62007 1.16219 9.56867 1.21358C9.541 1.24126 9.49356 1.26498 9.46983 1.26498C9.42635 1.26498 9.31564 1.36777 9.06262 1.63266C9.01913 1.68011 8.95982 1.7829 8.92819 1.85802C8.89656 1.93314 8.85703 2.00825 8.84121 2.02011C8.77796 2.05965 8.72261 2.54989 8.74633 2.82665C8.81354 3.55015 9.43425 4.17877 10.1578 4.25389C10.4147 4.27761 10.9841 4.2104 10.9841 4.15505C10.9841 4.13924 11.0513 4.10365 11.1343 4.07598C11.2134 4.04435 11.3201 3.98505 11.3676 3.9376C11.415 3.89016 11.4783 3.83086 11.5059 3.80318C11.5336 3.77551 11.5969 3.71225 11.6483 3.66876C11.6957 3.62132 11.7352 3.56201 11.7352 3.53434C11.7352 3.50666 11.759 3.45922 11.7906 3.42759C11.8855 3.3327 11.9725 2.96502 11.9725 2.64873C11.9725 2.35222 11.8894 1.93709 11.8143 1.84616C11.7906 1.81848 11.7194 1.7236 11.6562 1.63266C11.589 1.53778 11.4624 1.41126 11.3676 1.34405C11.2766 1.28079 11.1817 1.20963 11.1541 1.18591C11.0117 1.0673 10.2487 0.984275 9.93636 1.05544Z" fill="#ECEAFF"/>
<path d="M21.5598 5.26205C21.453 5.28577 21.3542 5.3174 21.3423 5.33322C21.3305 5.34903 21.2632 5.38461 21.196 5.41229C21.0102 5.48741 20.5911 5.86695 20.5911 5.95788C20.5911 5.9816 20.5674 6.02905 20.5358 6.06068C20.3065 6.28998 20.3025 7.42862 20.5318 7.65792C20.5635 7.68955 20.5911 7.73304 20.5911 7.75281C20.5911 7.82398 20.947 8.17584 21.0656 8.22329C21.1328 8.25096 21.1842 8.28654 21.1842 8.30236C21.1842 8.31817 21.2988 8.36562 21.4412 8.4012C21.8721 8.51981 22.5719 8.4526 22.7577 8.27468C22.7854 8.24701 22.8328 8.22329 22.8565 8.22329C22.9 8.22329 23.0107 8.12049 23.2638 7.8556C23.3073 7.80816 23.3666 7.70537 23.3982 7.63025C23.4298 7.55513 23.4693 7.48001 23.4852 7.46815C23.5484 7.42862 23.6038 6.93837 23.58 6.66162C23.5326 6.12789 23.1728 5.62183 22.6668 5.37671C22.4651 5.27787 22.3544 5.25019 22.0856 5.23833C21.9037 5.23042 21.6705 5.23833 21.5598 5.26205Z" fill="#ECEAFF"/>
<path d="M7.89997 7.41297C7.75764 7.44064 7.56787 7.5039 7.47694 7.54739C7.386 7.59483 7.29507 7.63041 7.27135 7.63041C7.25158 7.63041 7.20809 7.65413 7.18042 7.67786C7.15274 7.70553 7.06576 7.76484 6.9946 7.80437C6.68622 7.97833 6.18807 8.48834 6.13667 8.68602C6.12481 8.73742 6.09714 8.77695 6.08132 8.77695C6.06155 8.77695 6.01806 8.85998 5.97853 8.96277C5.93899 9.06952 5.8955 9.16045 5.87969 9.17231C5.86783 9.18417 5.83225 9.26324 5.80457 9.35022C5.7769 9.4372 5.72155 9.57162 5.67806 9.64674C5.63852 9.72186 5.58712 9.85628 5.5634 9.93931C5.53968 10.0223 5.50014 10.1172 5.46852 10.1449C5.44084 10.1726 5.40526 10.2595 5.3934 10.3386L5.36572 10.477L10.2721 15.3834L15.1785 20.2898L15.3129 20.2661C15.3881 20.2503 15.4711 20.2147 15.4988 20.187C15.5264 20.1593 15.6016 20.1237 15.6609 20.1079C15.7241 20.0921 15.8862 20.0289 16.0206 19.9656C16.159 19.8984 16.2974 19.847 16.333 19.847C16.3646 19.847 16.4199 19.8233 16.4476 19.7956C16.4753 19.7719 16.5662 19.7244 16.6493 19.6928C16.8865 19.6137 17.2028 19.3923 17.4835 19.1116C17.7167 18.8784 17.8591 18.6925 17.8867 18.5898C17.8986 18.5423 17.9263 18.5028 17.9421 18.5028C17.9579 18.5028 17.9935 18.4435 18.0212 18.3723C18.0488 18.3051 18.1042 18.1746 18.1437 18.0876C18.2544 17.8307 18.3098 17.3562 18.29 16.8699C18.2663 16.4311 18.1991 16.0516 18.1398 16.0516C18.1239 16.0516 18.0963 15.9922 18.0844 15.9211C18.0607 15.8025 17.8986 15.5139 17.7167 15.2648C17.6139 15.1264 10.6359 8.14833 10.45 7.99414C10.1891 7.7846 9.86886 7.59483 9.73048 7.56716C9.65932 7.55529 9.60001 7.52762 9.60001 7.51181C9.60001 7.38924 8.34673 7.31413 7.89997 7.41297Z" fill="#ECEAFF"/>
<path d="M21.8564 11.5919C21.6943 11.6116 21.552 11.6393 21.5401 11.6551C21.5283 11.671 21.3978 11.7144 21.2436 11.754C21.0934 11.7935 20.9589 11.837 20.9471 11.8528C20.9352 11.8726 20.8641 11.9082 20.7889 11.9398C20.6387 11.9991 20.362 12.177 20.1801 12.3233C20.018 12.4577 19.8875 12.6673 19.8361 12.8728C19.7729 13.1219 19.8164 13.5489 19.9192 13.6873C19.9626 13.7466 19.9982 13.8059 19.9982 13.8217C19.9982 13.8929 20.2868 14.1182 20.4292 14.1617C20.5201 14.1894 20.5913 14.225 20.5913 14.2408C20.5913 14.2606 20.7336 14.2724 20.9076 14.2724C21.0934 14.2724 21.2238 14.2566 21.2238 14.2329C21.2238 14.2092 21.2515 14.1933 21.2831 14.1933C21.3701 14.1933 21.5915 14.0747 21.6311 14.0115C21.6469 13.9798 21.6785 13.9561 21.7022 13.9561C21.722 13.9561 21.8248 13.9166 21.9276 13.8652C22.0818 13.794 22.1806 13.7782 22.5206 13.7782C22.7539 13.7782 22.9397 13.794 22.9555 13.8177C22.9713 13.8415 23.0583 13.8929 23.1492 13.9324C23.2441 13.9719 23.4774 14.1617 23.6751 14.3515C24.0704 14.735 24.1851 14.7864 24.616 14.7864C24.8809 14.7864 25.1339 14.7113 25.2644 14.5887C25.3118 14.5452 25.3632 14.5096 25.383 14.5096C25.3988 14.5096 25.4146 14.4859 25.4146 14.4582C25.4146 14.4306 25.4463 14.391 25.4858 14.3633C25.6044 14.2922 25.6637 13.9996 25.6439 13.6043C25.6242 13.1812 25.5649 13.0745 25.1181 12.6396C24.79 12.3233 24.6437 12.2047 24.4895 12.1335C24.4342 12.1058 24.3867 12.0742 24.3867 12.0584C24.3867 12.0426 24.3037 11.9991 24.2009 11.9596C24.0941 11.92 24.0032 11.8765 23.9913 11.8607C23.9637 11.8251 23.5644 11.7026 23.4774 11.7026C23.4378 11.7026 23.3983 11.6868 23.3904 11.667C23.3746 11.6156 22.7776 11.5444 22.4297 11.5484C22.2794 11.5523 22.0185 11.5721 21.8564 11.5919Z" fill="#ECEAFF"/>
<path d="M4.3971 12.7107C4.35757 12.8293 4.31408 12.9282 4.29826 12.9282C4.28245 12.9282 4.25873 12.9756 4.24291 13.0349C4.23105 13.0982 4.1678 13.2563 4.10454 13.3907C4.04128 13.5252 3.97802 13.6833 3.96221 13.7466C3.9464 13.8059 3.91081 13.881 3.87918 13.9087C3.85151 13.9363 3.82779 13.9877 3.82779 14.0154C3.82779 14.047 3.77639 14.1854 3.71313 14.3198C3.65383 14.4582 3.58662 14.6124 3.57081 14.6677C3.55499 14.7231 3.51546 14.8022 3.48778 14.8457C3.45615 14.8891 3.43243 14.9445 3.43243 14.9722C3.43243 14.9998 3.38103 15.1343 3.31778 15.2687C3.25452 15.4071 3.18731 15.5652 3.17545 15.6245C3.15963 15.6878 3.13591 15.7352 3.11614 15.7352C3.10033 15.7352 3.06475 15.8103 3.04102 15.9013C3.01335 15.9962 2.94614 16.1582 2.8987 16.2689C2.8473 16.3757 2.79195 16.5141 2.78009 16.5734C2.76427 16.6366 2.7366 16.6841 2.72078 16.6841C2.70497 16.6841 2.67729 16.7315 2.66148 16.7908C2.64962 16.8541 2.58636 17.0083 2.52706 17.1387C2.4638 17.2692 2.40054 17.4353 2.38473 17.5025C2.37287 17.5736 2.34124 17.6329 2.32147 17.6329C2.3017 17.6329 2.27403 17.6804 2.26217 17.7397C2.24635 17.8029 2.1831 17.9611 2.11984 18.0995C2.06054 18.2339 2.00914 18.3683 2.00914 18.396C2.00914 18.4197 1.97356 18.4948 1.93007 18.562C1.88658 18.6253 1.851 18.7044 1.851 18.7281C1.851 18.7558 1.7996 18.8902 1.73634 19.0246C1.67308 19.163 1.60587 19.3211 1.59401 19.3804C1.5782 19.4437 1.55448 19.4911 1.53471 19.4911C1.51889 19.4911 1.48331 19.5662 1.45959 19.6572C1.43192 19.7521 1.3647 19.9142 1.31726 20.0249C1.26586 20.1316 1.21051 20.27 1.19865 20.3332C1.18284 20.3925 1.15516 20.44 1.13935 20.44C1.12354 20.44 1.09586 20.4874 1.08005 20.5507C1.06819 20.61 1.00493 20.7642 0.945624 20.8946C0.882367 21.0251 0.81911 21.1912 0.803295 21.2623C0.791434 21.3295 0.759806 21.3888 0.740038 21.3888C0.72027 21.3888 0.692595 21.4363 0.680734 21.4995C0.66492 21.5588 0.605616 21.713 0.542359 21.8475C0.400029 22.1637 0.348633 22.4563 0.348633 22.9545C0.348633 23.4605 0.400029 23.7056 0.570034 24.0457C0.716316 24.3382 0.763759 24.4054 1.00493 24.6466C1.23819 24.8799 1.32912 24.9471 1.49122 25.0143C1.57029 25.0459 1.64146 25.0894 1.65332 25.1052C1.76006 25.2713 2.92242 25.3661 3.38499 25.2475C3.52336 25.212 3.7329 25.1408 3.85151 25.0854C3.97012 25.0301 4.09268 24.9866 4.12431 24.9866C4.15198 24.9866 4.20338 24.9629 4.23105 24.9352C4.25873 24.9036 4.3378 24.868 4.40106 24.8522C4.46827 24.8364 4.59874 24.781 4.69758 24.7336C4.79642 24.6822 4.95061 24.6189 5.03363 24.5912C5.12061 24.5636 5.19968 24.528 5.21154 24.5161C5.2234 24.5043 5.33015 24.4568 5.44876 24.4173C5.56737 24.3738 5.70179 24.3184 5.74528 24.2908C5.78877 24.2631 5.89947 24.2196 5.99435 24.1919C6.08529 24.1643 6.1604 24.1326 6.1604 24.1168C6.1604 24.097 6.20785 24.0733 6.2711 24.0575C6.33041 24.0457 6.48855 23.9784 6.62693 23.9152C6.76135 23.8519 6.89577 23.8005 6.92345 23.8005C6.95112 23.8005 7.00647 23.7768 7.04996 23.7452C7.09345 23.7175 7.17252 23.678 7.22787 23.6622C7.28322 23.6463 7.43741 23.5791 7.57579 23.5198C7.71021 23.4566 7.84859 23.4052 7.88021 23.4052C7.90789 23.4052 7.95929 23.3814 7.98696 23.3538C8.01464 23.3221 8.08975 23.2866 8.14906 23.2707C8.21232 23.2549 8.37046 23.1917 8.50488 23.1284C8.6393 23.0652 8.79745 23.0019 8.8607 22.99C8.92001 22.9742 8.96745 22.9466 8.96745 22.9307C8.96745 22.9149 9.01489 22.8873 9.07815 22.8714C9.13745 22.8596 9.27583 22.8042 9.38258 22.7528C9.49328 22.7054 9.65537 22.6382 9.75026 22.6105C9.84119 22.5868 9.91631 22.5512 9.91631 22.5354C9.91631 22.5156 9.96375 22.4919 10.027 22.4761C10.0863 22.4642 10.2445 22.397 10.3828 22.3337C10.5173 22.2705 10.6517 22.2191 10.6794 22.2191C10.707 22.2191 10.7624 22.1954 10.8059 22.1637C10.8494 22.1361 10.9284 22.0965 10.9838 22.0807C11.0391 22.0649 11.1933 21.9977 11.3317 21.9384C11.4661 21.8751 11.6045 21.8237 11.6361 21.8237C11.6638 21.8237 11.7152 21.8 11.7429 21.7723C11.7705 21.7407 11.8457 21.7051 11.905 21.6893C11.9682 21.6735 12.1264 21.6102 12.2608 21.547C12.3952 21.4837 12.5534 21.4205 12.6166 21.4086C12.6759 21.3928 12.7234 21.3651 12.7234 21.3454C12.7234 21.3256 12.7431 21.3098 12.7708 21.3098C12.8894 21.3098 13.1583 21.1753 13.1583 21.116C13.1583 21.0291 4.61851 12.4933 4.53153 12.4933C4.48408 12.4933 4.44455 12.5605 4.3971 12.7107Z" fill="#ECEAFF"/>
</g>
<defs>
<clipPath id="clip0_795_46">
<rect width="25.3029" height="25.3029" fill="white" transform="translate(0.348633)"/>
</clipPath>
</defs>
</svg>
