<svg width="19" height="18" viewBox="0 0 19 18" fill="none" xmlns="http://www.w3.org/2000/svg">
<path d="M15.6071 5.14286L16.6881 7.07143L19 7.33757L17.3036 8.78593L17.6429 10.9286L15.6071 9.72321L13.5714 10.9286L13.9107 8.78593L12.2143 7.33757L14.5893 7.07143L15.6071 5.14286ZM13.5714 18H12.2143V14.7857C12.2132 13.9335 11.8554 13.1166 11.2194 12.514C10.5833 11.9114 9.72094 11.5724 8.82143 11.5714H4.75C3.85049 11.5724 2.98813 11.9114 2.35208 12.514C1.71603 13.1166 1.35822 13.9335 1.35714 14.7857V18H0V14.7857C0.00179505 13.5928 0.502817 12.4492 1.39323 11.6056C2.28363 10.7621 3.49077 10.2874 4.75 10.2857H8.82143C10.0807 10.2874 11.2878 10.7621 12.1782 11.6056C13.0686 12.4492 13.5696 13.5928 13.5714 14.7857V18ZM6.78571 1.28571C7.45676 1.28571 8.11273 1.47423 8.67068 1.82742C9.22864 2.18061 9.66351 2.68261 9.92031 3.26995C10.1771 3.85728 10.2443 4.50357 10.1134 5.12708C9.98246 5.75059 9.65933 6.32332 9.18483 6.77284C8.71033 7.22237 8.10578 7.5285 7.44763 7.65252C6.78948 7.77655 6.10729 7.71289 5.48732 7.46961C4.86736 7.22633 4.33747 6.81435 3.96466 6.28576C3.59184 5.75717 3.39286 5.13573 3.39286 4.5C3.39286 3.64752 3.75032 2.82995 4.3866 2.22716C5.02289 1.62436 5.88587 1.28571 6.78571 1.28571ZM6.78571 0C5.84625 0 4.92789 0.26392 4.14676 0.758387C3.36562 1.25285 2.7568 1.95566 2.39729 2.77792C2.03777 3.60019 1.9437 4.50499 2.12698 5.37791C2.31026 6.25082 2.76266 7.05264 3.42696 7.68198C4.09126 8.31132 4.93763 8.7399 5.85904 8.91353C6.78045 9.08717 7.73551 8.99805 8.60346 8.65746C9.47141 8.31686 10.2133 7.74009 10.7352 7.00007C11.2571 6.26004 11.5357 5.39002 11.5357 4.5C11.5357 3.30653 11.0353 2.16193 10.1445 1.31802C9.25367 0.474106 8.04549 0 6.78571 0Z" fill="white"/>
</svg>
