<svg width="27" height="27" viewBox="0 0 27 27" fill="none" xmlns="http://www.w3.org/2000/svg">
<g clip-path="url(#clip0_795_57)">
<path d="M12.2947 0.911984C12.0772 0.947567 11.8479 0.998963 11.7807 1.02664C11.7175 1.05827 11.5554 1.10966 11.4289 1.14129C11.2984 1.17292 11.1837 1.21641 11.1719 1.23222C11.16 1.24804 11.0572 1.29548 10.9426 1.33502C10.8319 1.3706 10.6263 1.46944 10.4879 1.54851C10.3495 1.62363 10.2032 1.71061 10.1598 1.73433C10.0491 1.79759 9.73277 2.00713 9.68138 2.05457C9.6537 2.07434 9.57463 2.1376 9.50346 2.19295C9.30974 2.33923 8.63367 3.01925 8.49925 3.20111C8.43204 3.28809 8.37274 3.36716 8.36088 3.37902C8.3332 3.4067 8.11971 3.73089 8.0604 3.83368C8.03668 3.87717 7.95366 4.0195 7.87854 4.15392C7.80342 4.28439 7.70854 4.48207 7.669 4.58882C7.62551 4.69557 7.57411 4.81813 7.54644 4.86162C7.52272 4.90511 7.47923 5.02767 7.45551 5.13837C7.42783 5.24512 7.38434 5.38744 7.35667 5.45466C7.32504 5.51791 7.27759 5.74327 7.24992 5.94885C7.22224 6.15444 7.18666 6.34026 7.16689 6.36003C7.1234 6.41142 7.1234 7.93751 7.16689 7.9889C7.18666 8.00867 7.22224 8.19449 7.24992 8.40008C7.27759 8.60566 7.32504 8.82706 7.35667 8.89428C7.38434 8.95753 7.42783 9.09986 7.45551 9.21056C7.47923 9.31731 7.52272 9.44382 7.54644 9.48731C7.57411 9.5308 7.62551 9.65336 7.669 9.76011C7.70854 9.86686 7.80342 10.0645 7.87854 10.195C7.95366 10.3294 8.03668 10.4718 8.0604 10.5152C8.11971 10.618 8.3332 10.9422 8.36088 10.9699C8.37274 10.9818 8.43204 11.0608 8.49925 11.1478C8.63367 11.3297 9.30974 12.0097 9.50346 12.156C9.57463 12.2113 9.6537 12.2746 9.68138 12.2944C9.80394 12.4051 10.2546 12.6818 10.484 12.7925C10.5749 12.836 10.6579 12.8834 10.6698 12.8993C10.6816 12.919 10.7923 12.9665 10.9188 13.01C11.0454 13.0495 11.1679 13.1048 11.1916 13.1286C11.2193 13.1523 11.3419 13.1918 11.4684 13.2195C11.5989 13.2472 11.7214 13.2867 11.7451 13.3065C11.7689 13.3262 11.9745 13.3697 12.1998 13.4053C12.4252 13.4409 12.6426 13.4844 12.6782 13.5042C12.7652 13.5476 14.2636 13.5516 14.311 13.5081C14.3347 13.4883 14.5206 13.4528 14.7262 13.4251C14.9317 13.3974 15.1571 13.35 15.2203 13.3183C15.2876 13.2907 15.4299 13.2472 15.5366 13.2195C15.6473 13.1958 15.7699 13.1523 15.8134 13.1286C15.8569 13.1009 15.9834 13.0455 16.0901 13.006C16.2008 12.9665 16.2957 12.923 16.3076 12.9111C16.3194 12.8993 16.4064 12.8479 16.5053 12.8004C16.7543 12.6739 17.2288 12.3853 17.296 12.3141C17.3078 12.3023 17.3869 12.243 17.4739 12.1758C17.6558 12.0413 18.3358 11.3653 18.4821 11.1715C18.5374 11.1004 18.6007 11.0213 18.6244 10.9936C18.6679 10.9462 18.8576 10.6576 18.9407 10.5152C18.9644 10.4718 19.0474 10.3294 19.1225 10.195C19.1977 10.0645 19.2925 9.86686 19.3321 9.76011C19.3756 9.65336 19.427 9.5308 19.4546 9.48731C19.4784 9.44382 19.5219 9.31731 19.5456 9.21056C19.5732 9.09986 19.6167 8.95753 19.6444 8.89428C19.676 8.82706 19.7235 8.60566 19.7512 8.40008C19.7788 8.19449 19.8144 8.00867 19.8342 7.9889C19.8777 7.93751 19.8777 6.41142 19.8342 6.36398C19.8144 6.34026 19.7788 6.15444 19.7512 5.94885C19.7235 5.74327 19.676 5.51791 19.6444 5.45466C19.6167 5.38744 19.5732 5.24512 19.5456 5.13837C19.5219 5.02767 19.4784 4.90511 19.4546 4.86162C19.427 4.81813 19.3756 4.69557 19.3321 4.58882C19.2925 4.48207 19.1977 4.28439 19.1225 4.15392C19.0474 4.0195 18.9644 3.87717 18.9407 3.83368C18.8616 3.69531 18.6679 3.39879 18.6442 3.37902C18.6323 3.36716 18.569 3.28809 18.5018 3.20111C18.3516 2.99552 17.6795 2.32341 17.4739 2.17318C17.3869 2.10597 17.3078 2.04271 17.296 2.03085C17.2762 2.00713 16.9797 1.8134 16.8413 1.73433C16.7978 1.71061 16.6555 1.62758 16.5211 1.55247C16.3906 1.47735 16.1929 1.38246 16.0862 1.34293C15.9794 1.29944 15.8569 1.24804 15.8134 1.22036C15.7699 1.19664 15.6473 1.15315 15.5366 1.12943C15.4299 1.10176 15.3231 1.06617 15.2994 1.04641C15.1017 0.88431 13.0696 0.793377 12.2947 0.911984Z" fill="#ECEAFF"/>
<path d="M12.4923 15.6034C12.2313 15.6232 12.0099 15.6548 11.9981 15.6746C11.9862 15.6904 11.8795 15.7181 11.7609 15.73C11.4288 15.7734 11.0729 15.8407 11.0492 15.8683C11.0374 15.8841 10.8911 15.9276 10.725 15.9672C10.555 16.0107 10.4166 16.0581 10.4166 16.0739C10.4166 16.0897 10.3534 16.1135 10.2743 16.1293C10.1952 16.1411 10.041 16.1965 9.92639 16.2439C9.81569 16.2953 9.6615 16.3586 9.58639 16.3863C9.51127 16.4179 9.4401 16.4535 9.42824 16.4653C9.41638 16.4811 9.32545 16.5246 9.22266 16.5642C9.11591 16.6037 9.03288 16.6432 9.03288 16.6591C9.03288 16.6709 8.95381 16.7184 8.85497 16.7618C8.75613 16.8053 8.67706 16.8528 8.67706 16.8686C8.67706 16.8805 8.63753 16.9081 8.59008 16.9239C8.49124 16.9516 8.14333 17.1809 8.04053 17.2758C8.00495 17.3074 7.95751 17.3351 7.93379 17.3351C7.90611 17.3351 7.86658 17.3707 7.8389 17.4142C7.81123 17.4577 7.77169 17.4933 7.74797 17.4933C7.7282 17.4933 7.64518 17.5486 7.57006 17.6119C7.49494 17.6791 7.37238 17.7819 7.30121 17.8412C7.11144 17.9954 6.47096 18.6319 6.27724 18.8612C6.1863 18.9679 6.05583 19.1182 5.98862 19.1933C5.92537 19.2684 5.87002 19.3396 5.87002 19.3554C5.87002 19.3673 5.82653 19.4305 5.77118 19.4938C5.71583 19.557 5.66048 19.6401 5.64862 19.6756C5.63675 19.7152 5.61303 19.7468 5.60117 19.7468C5.58536 19.7468 5.53791 19.814 5.49443 19.8931C5.45094 19.9761 5.40349 20.0512 5.39163 20.0631C5.37977 20.0749 5.33628 20.1461 5.29675 20.2212C5.25721 20.2964 5.21372 20.3675 5.20186 20.3794C5.15837 20.411 4.84208 21.0673 4.84208 21.1187C4.84208 21.1464 4.82627 21.1701 4.8065 21.1701C4.78673 21.1701 4.73929 21.2768 4.69975 21.4073C4.66022 21.5378 4.61673 21.6445 4.60092 21.6445C4.58905 21.6445 4.54556 21.7552 4.50998 21.8896C4.47045 22.028 4.41905 22.1901 4.38742 22.2573C4.35975 22.3206 4.3123 22.4906 4.28463 22.6329C4.26091 22.7752 4.22532 22.9057 4.20951 22.9294C4.16997 22.9769 4.05137 23.7676 4.05137 23.9574C4.05137 24.0285 4.03555 24.1037 4.01183 24.1155C3.96439 24.1471 3.95648 25.44 4.00788 25.44C4.02765 25.44 4.05137 25.4953 4.06718 25.5586C4.09881 25.7246 4.43486 26.0567 4.62859 26.1081C4.73534 26.1398 7.39215 26.1516 13.5004 26.1516C19.6087 26.1516 22.2655 26.1398 22.3723 26.1081C22.566 26.0567 22.9021 25.7246 22.9337 25.5586C22.9495 25.4953 22.9732 25.44 22.993 25.44C23.0444 25.44 23.0365 24.1471 22.989 24.1155C22.9693 24.1037 22.9495 24.0285 22.9495 23.9574C22.9495 23.7676 22.8309 22.9769 22.7914 22.9294C22.7755 22.9057 22.74 22.7752 22.7162 22.6329C22.6886 22.4906 22.6411 22.3206 22.6135 22.2573C22.5818 22.1901 22.5304 22.028 22.4909 21.8896C22.4553 21.7552 22.4118 21.6445 22.4 21.6445C22.3841 21.6445 22.3407 21.5378 22.3011 21.4073C22.2616 21.2768 22.2141 21.1701 22.1944 21.1701C22.1746 21.1701 22.1588 21.1464 22.1588 21.1187C22.1588 21.0673 21.8425 20.411 21.799 20.3794C21.7872 20.3675 21.7437 20.2964 21.7041 20.2212C21.6646 20.1461 21.6211 20.0749 21.6092 20.0631C21.5974 20.0512 21.5499 19.9761 21.5064 19.8931C21.463 19.814 21.4155 19.7468 21.3997 19.7468C21.3878 19.7468 21.3641 19.7152 21.3523 19.6756C21.3404 19.6401 21.285 19.557 21.2297 19.4938C21.1743 19.4305 21.1309 19.3673 21.1309 19.3554C21.1309 19.3396 21.0755 19.2684 21.0123 19.1933C20.945 19.1182 20.8146 18.9679 20.7236 18.8612C20.5299 18.6319 19.8894 17.9954 19.6997 17.8412C19.6285 17.7819 19.5059 17.6791 19.4308 17.6119C19.3557 17.5486 19.2727 17.4933 19.2529 17.4933C19.2292 17.4933 19.1896 17.4577 19.162 17.4142C19.1343 17.3707 19.0948 17.3351 19.0671 17.3351C19.0434 17.3351 18.9959 17.3074 18.9603 17.2758C18.8575 17.1809 18.5096 16.9516 18.4108 16.9239C18.3633 16.9081 18.3238 16.8805 18.3238 16.8686C18.3238 16.8528 18.2447 16.8053 18.1459 16.7618C18.0471 16.7184 17.968 16.6709 17.968 16.6591C17.968 16.6432 17.881 16.5997 17.7703 16.5602C17.6636 16.5207 17.5726 16.4772 17.5726 16.4614C17.5726 16.4456 17.4777 16.4021 17.367 16.3625C17.2524 16.327 17.1496 16.2835 17.1377 16.2716C17.114 16.236 16.7147 16.1095 16.6396 16.1095C16.608 16.1095 16.5842 16.0937 16.5842 16.0779C16.5842 16.0581 16.4459 16.0107 16.2798 15.9672C16.1098 15.9276 15.9635 15.8841 15.9517 15.8683C15.9279 15.8407 15.2361 15.7141 15.0977 15.7141C15.0502 15.7141 15.0028 15.6983 14.9949 15.6786C14.9791 15.6311 13.9274 15.556 13.3976 15.56C13.1604 15.5639 12.7532 15.5837 12.4923 15.6034Z" fill="#ECEAFF"/>
</g>
<defs>
<clipPath id="clip0_795_57">
<rect width="25.3029" height="25.3029" fill="white" transform="translate(0.848633 0.848633)"/>
</clipPath>
</defs>
</svg>
