<svg width="26" height="26" viewBox="0 0 26 26" fill="none" xmlns="http://www.w3.org/2000/svg">
<path d="M12.0511 0.0671768C11.8653 0.0988045 11.6637 0.150202 11.5965 0.185783C11.5332 0.217413 11.3948 0.268808 11.292 0.300438C11.1853 0.332066 11.1023 0.371603 11.1023 0.387417C11.1023 0.407185 11.039 0.442766 10.9639 0.470442C10.8888 0.498117 10.8018 0.541607 10.7741 0.569281C10.7465 0.60091 10.6674 0.652308 10.5962 0.687889C10.5251 0.723471 10.4697 0.770914 10.4697 0.790682C10.4697 0.814404 10.446 0.830217 10.4143 0.830217C10.363 0.830217 9.38642 1.78699 9.31921 1.90559C9.30339 1.93722 9.15711 2.09932 8.99897 2.26142C8.84082 2.42351 8.57593 2.70422 8.41383 2.88213C8.01848 3.31307 7.83266 3.51075 7.36613 4.01286C7.14869 4.24612 6.96287 4.4517 6.95101 4.46752C6.93519 4.49519 6.56751 4.89055 5.98238 5.51522C5.87563 5.62987 5.64237 5.8829 5.46841 6.06872C5.29446 6.25849 5.08887 6.47989 5.01375 6.56292C4.93863 6.64594 4.7884 6.80804 4.68165 6.9227C4.10838 7.54736 3.78814 7.89528 3.61023 8.08505C3.50348 8.1997 3.27022 8.45273 3.09626 8.63855C2.9223 8.82832 2.65346 9.12089 2.49927 9.28694C2.34508 9.45299 2.15926 9.65462 2.09205 9.73369C2.02089 9.81672 1.88251 9.96696 1.77972 10.0737C1.67692 10.1765 1.43576 10.4414 1.23808 10.6549C1.0404 10.8684 0.842718 11.0858 0.795275 11.1372C0.743878 11.1886 0.676667 11.2875 0.641085 11.3586C0.605503 11.4298 0.55806 11.497 0.538292 11.5089C0.518524 11.5207 0.467127 11.6551 0.423638 11.8093C0.34852 12.0821 0.34852 12.1928 0.356427 17.4985C0.368288 22.7054 0.372241 22.9189 0.447359 23.1482C0.486895 23.2787 0.534338 23.3933 0.550153 23.4052C0.565967 23.4171 0.609456 23.504 0.648992 23.6029C0.688528 23.7017 0.728064 23.7887 0.743878 23.8006C0.755739 23.8124 0.799228 23.8717 0.838764 23.935C1.01668 24.2157 1.47529 24.6664 1.74018 24.8285C2.05647 25.0183 2.44787 25.1804 2.72858 25.2397C2.98952 25.295 3.39278 25.3029 5.40516 25.3029H7.77731L7.78917 21.7249C7.79708 19.3646 7.81289 18.1351 7.84056 18.1153C7.86429 18.0995 7.91173 17.9295 7.95127 17.7318C7.9908 17.5381 8.03824 17.3602 8.05406 17.3364C8.07383 17.3167 8.11732 17.1981 8.15685 17.0795C8.19639 16.9609 8.23988 16.8541 8.25569 16.8422C8.27151 16.8304 8.315 16.7394 8.35453 16.6327C8.39407 16.5299 8.43756 16.4469 8.45337 16.4469C8.46918 16.4469 8.51267 16.3757 8.55221 16.2887C8.59175 16.2018 8.63919 16.1306 8.655 16.1306C8.67082 16.1306 8.69454 16.099 8.7064 16.0594C8.71826 16.0239 8.78152 15.929 8.84873 15.8538C8.91199 15.7787 8.96734 15.7036 8.96734 15.6917C8.96734 15.6483 9.62759 15.0038 9.82131 14.8575C9.92806 14.7745 10.0506 14.6836 10.0941 14.648C10.2048 14.561 10.4618 14.4068 10.6278 14.3278C10.703 14.2922 10.7741 14.2487 10.786 14.2329C10.7978 14.2171 10.8769 14.1815 10.9639 14.1538C11.0509 14.1261 11.1932 14.0708 11.2802 14.0352C11.3672 13.9957 11.553 13.9403 11.6953 13.9126C11.8376 13.885 11.9602 13.8494 11.9721 13.8336C11.9839 13.8177 12.2211 13.7822 12.4979 13.7545C12.8853 13.7189 13.1146 13.7189 13.5021 13.7545C13.7828 13.7822 14.0161 13.8217 14.02 13.8415C14.0279 13.8612 14.0635 13.8771 14.0991 13.8771C14.19 13.8771 14.6763 14.0036 14.7 14.0312C14.7119 14.0431 14.791 14.0787 14.8779 14.1103C15.1073 14.1854 15.3682 14.3119 15.558 14.4385C15.6489 14.4978 15.7359 14.5492 15.7477 14.5492C15.7636 14.5492 15.8268 14.5887 15.8861 14.6361C15.9494 14.6875 16.0798 14.7864 16.1826 14.8615C16.3645 14.9959 17.0327 15.6483 17.0327 15.6917C17.0327 15.7036 17.088 15.7787 17.1513 15.8538C17.2145 15.929 17.2699 16.0041 17.2699 16.0199C17.2699 16.0357 17.2936 16.0713 17.3252 16.099C17.3529 16.1306 17.4082 16.2176 17.4478 16.2887C17.4873 16.3639 17.5387 16.4548 17.5664 16.4864C17.5901 16.518 17.6376 16.609 17.6652 16.6841C17.6969 16.7592 17.7324 16.8304 17.7443 16.8422C17.7601 16.8541 17.8036 16.9609 17.8431 17.0795C17.8827 17.1981 17.9262 17.3167 17.9459 17.3364C17.9617 17.3602 18.0092 17.5381 18.0487 17.7318C18.0883 17.9295 18.1357 18.0995 18.1594 18.1153C18.1871 18.1351 18.2029 19.3646 18.2108 21.7249L18.2227 25.3029H20.5948C23.2358 25.3029 23.3347 25.295 23.8526 25.042C24.2163 24.8641 24.3586 24.7771 24.5326 24.6229C24.9556 24.2513 25.1533 23.9943 25.3431 23.6029C25.3866 23.504 25.438 23.4171 25.4538 23.4052C25.4696 23.3933 25.5131 23.2589 25.5566 23.1087C25.6277 22.8438 25.6317 22.6224 25.6317 17.376C25.6317 12.1889 25.6277 11.9082 25.5605 11.7105C25.521 11.5998 25.4736 11.5049 25.4538 11.5049C25.438 11.5049 25.4103 11.4614 25.3984 11.41C25.3708 11.3033 25.2917 11.1965 24.9794 10.8723C24.7856 10.6667 24.5761 10.4414 23.8882 9.6902C23.7814 9.57555 23.6312 9.41345 23.5561 9.33043C23.481 9.2474 23.2754 9.026 23.1014 8.84018C22.5321 8.21947 22.2356 7.90318 21.943 7.59876C21.7849 7.43666 21.6425 7.27852 21.6267 7.25084C21.6109 7.22712 21.4211 7.01363 21.2037 6.78036C20.7451 6.28617 20.4999 6.02523 20.1204 5.61406C19.9702 5.45196 19.7171 5.18312 19.559 5.02102C19.4048 4.85892 19.2546 4.69287 19.2269 4.65334C19.1992 4.6138 19.0371 4.43193 18.8632 4.25402C18.6932 4.07216 18.4045 3.75982 18.2187 3.55819C18.0329 3.35656 17.7838 3.09167 17.6652 2.96515C17.4478 2.73585 16.9457 2.19025 16.574 1.78303C16.2024 1.37186 15.641 0.830217 15.5856 0.830217C15.554 0.830217 15.5303 0.814404 15.5303 0.790682C15.5303 0.770914 15.4749 0.723471 15.4038 0.687889C15.3326 0.652308 15.2535 0.60091 15.2259 0.569281C15.1982 0.541607 15.1112 0.498117 15.0361 0.470442C14.961 0.442766 14.8977 0.407185 14.8977 0.387417C14.8977 0.371603 14.8147 0.332066 14.7119 0.300438C14.6052 0.268808 14.4707 0.217413 14.4035 0.185783C14.0556 0.0118256 12.747 -0.0553856 12.0511 0.0671768Z" fill="#ECEAFF"/>
<path d="M12.5851 15.7629C12.4784 15.7708 12.3795 15.7906 12.3677 15.8064C12.3558 15.8222 12.2451 15.8578 12.1226 15.8815C11.9051 15.925 11.3832 16.1425 11.3398 16.2057C11.3279 16.2255 11.2607 16.269 11.1935 16.3046C11.1223 16.3401 11.063 16.3876 11.063 16.4073C11.063 16.4271 11.0274 16.4508 10.9879 16.4667C10.893 16.4943 10.5174 16.8699 10.4897 16.9648C10.4739 17.0043 10.4462 17.0399 10.4265 17.0399C10.4067 17.0399 10.3593 17.1032 10.3237 17.1783C10.2881 17.2534 10.2446 17.3167 10.2288 17.3167C10.213 17.3167 10.1695 17.3997 10.13 17.5025C10.0904 17.6092 10.043 17.7002 10.0272 17.716C10.0113 17.7278 9.96786 17.8583 9.93227 18.0125C9.90064 18.1627 9.8532 18.3169 9.83343 18.3525C9.81367 18.396 9.79785 19.843 9.79785 21.8633V25.3029H13.0003H16.2027V21.8673C16.2027 19.6177 16.1908 18.4197 16.1631 18.4039C16.1434 18.392 16.1236 18.3407 16.1236 18.2932C16.1236 18.143 16.0089 17.7476 15.9457 17.6844C15.914 17.6527 15.8864 17.6013 15.8864 17.5697C15.8864 17.5144 15.8073 17.3523 15.7638 17.3167C15.752 17.3048 15.7085 17.2376 15.6729 17.1664C15.6373 17.0992 15.5899 17.0399 15.5701 17.0399C15.5503 17.0399 15.5266 17.0043 15.5108 16.9648C15.4792 16.866 15.0561 16.4469 14.9889 16.4469C14.9612 16.4469 14.9375 16.4311 14.9375 16.4073C14.9375 16.3876 14.8782 16.3401 14.811 16.3046C14.7398 16.269 14.6726 16.2255 14.6608 16.2057C14.6173 16.1425 14.0954 15.925 13.878 15.8815C13.7554 15.8578 13.6447 15.8222 13.6328 15.8104C13.6052 15.7748 12.8421 15.7392 12.5851 15.7629Z" fill="#ECEAFF"/>
</svg>
