<svg width="28" height="29" viewBox="0 0 28 29" fill="none" xmlns="http://www.w3.org/2000/svg">
<path d="M5.25 26.8767H15.75C16.2141 26.8767 16.6592 26.6923 16.9874 26.3641C17.3156 26.036 17.5 25.5908 17.5 25.1267V22.5017H15.75V25.1267H5.25V4.12671H15.75V6.75171H17.5V4.12671C17.5 3.66258 17.3156 3.21746 16.9874 2.88927C16.6592 2.56108 16.2141 2.37671 15.75 2.37671H5.25C4.78587 2.37671 4.34075 2.56108 4.01256 2.88927C3.68437 3.21746 3.5 3.66258 3.5 4.12671V25.1267C3.5 25.5908 3.68437 26.036 4.01256 26.3641C4.34075 26.6923 4.78587 26.8767 5.25 26.8767Z" fill="white"/>
<path d="M18.0128 18.6395L21.1505 15.5017H8.75V13.7517H21.1505L18.0128 10.614L19.25 9.37671L24.5 14.6267L19.25 19.8767L18.0128 18.6395Z" fill="white"/>
</svg>
