<svg width="23" height="26" viewBox="0 0 23 26" fill="none" xmlns="http://www.w3.org/2000/svg">
<path d="M22.4936 16.0076L20.125 13.639V10.5012C20.1223 8.33283 19.3156 6.24246 17.8611 4.63433C16.4065 3.0262 14.4072 2.01454 12.25 1.79497V0.0012207H10.5V1.79497C8.34275 2.01454 6.34354 3.0262 4.88895 4.63433C3.43436 6.24246 2.62771 8.33283 2.625 10.5012V13.639L0.256375 16.0076C0.0922693 16.1717 4.95577e-05 16.3942 0 16.6262V19.2512C0 19.4833 0.0921872 19.7058 0.256282 19.8699C0.420376 20.034 0.642936 20.1262 0.875 20.1262H7V20.8061C6.98058 21.9163 7.3717 22.9945 8.09836 23.834C8.82501 24.6736 9.83603 25.2153 10.9375 25.3552C11.5458 25.4155 12.16 25.3479 12.7405 25.1566C13.3211 24.9653 13.8552 24.6546 14.3085 24.2445C14.7617 23.8344 15.1242 23.334 15.3724 22.7754C15.6207 22.2168 15.7493 21.6125 15.75 21.0012V20.1262H21.875C22.1071 20.1262 22.3296 20.034 22.4937 19.8699C22.6578 19.7058 22.75 19.4833 22.75 19.2512V16.6262C22.75 16.3942 22.6577 16.1717 22.4936 16.0076ZM14 21.0012C14 21.6974 13.7234 22.3651 13.2312 22.8574C12.7389 23.3497 12.0712 23.6262 11.375 23.6262C10.6788 23.6262 10.0111 23.3497 9.51884 22.8574C9.02656 22.3651 8.75 21.6974 8.75 21.0012V20.1262H14V21.0012ZM21 18.3762H1.75V16.9885L4.11862 14.6198C4.28273 14.4558 4.37495 14.2333 4.375 14.0012V10.5012C4.375 8.64471 5.1125 6.86423 6.42525 5.55147C7.73801 4.23872 9.51848 3.50122 11.375 3.50122C13.2315 3.50122 15.012 4.23872 16.3247 5.55147C17.6375 6.86423 18.375 8.64471 18.375 10.5012V14.0012C18.375 14.2333 18.4673 14.4558 18.6314 14.6198L21 16.9885V18.3762Z" fill="white"/>
</svg>
