<svg width="15" height="17" viewBox="0 0 15 17" fill="none" xmlns="http://www.w3.org/2000/svg">
<path d="M7.5 0C5.5116 0.00208886 3.60531 0.706393 2.19929 1.95842C0.793279 3.21044 0.00235048 4.90795 4.70739e-06 6.67857C-0.00182348 8.12545 0.528896 9.53299 1.51091 10.6857C1.51091 10.6857 1.71546 10.9255 1.74887 10.9601L7.5 17L13.2539 10.9571C13.2839 10.9249 13.4891 10.6857 13.4891 10.6857L13.4898 10.6839C14.4711 9.53159 15.0016 8.12476 15 6.67857C14.9977 4.90795 14.2067 3.21044 12.8007 1.95842C11.3947 0.706393 9.4884 0.00208886 7.5 0ZM7.5 9.10714C6.9606 9.10714 6.43331 8.96471 5.98481 8.69785C5.53631 8.431 5.18675 8.05171 4.98033 7.60795C4.77391 7.16418 4.7199 6.67588 4.82513 6.20478C4.93037 5.73368 5.19011 5.30095 5.57153 4.96131C5.95294 4.62167 6.4389 4.39037 6.96794 4.29666C7.49698 4.20296 8.04534 4.25105 8.54368 4.43486C9.04203 4.61868 9.46797 4.92995 9.76764 5.32933C10.0673 5.72871 10.2273 6.19825 10.2273 6.67857C10.2264 7.32242 9.93874 7.93967 9.42748 8.39494C8.91621 8.85021 8.22304 9.10634 7.5 9.10714Z" fill="white"/>
</svg>
